<svg width="11" height="12" viewBox="0 0 11 12" fill="none" xmlns="http://www.w3.org/2000/svg">
<path d="M6.56167 4.03529H6.18333V3.95695C6.18333 3.72862 6.03167 3.53529 5.82333 3.47029V2.52029C5.82333 1.91362 5.58667 1.34362 5.15833 0.915286C5.01333 0.770286 4.85 0.650286 4.67667 0.550286C4.675 0.54862 4.67333 0.54862 4.67167 0.546953C4.33833 0.356953 3.96167 0.25362 3.56833 0.251953C3.56667 0.251953 3.565 0.251953 3.565 0.251953C3.56333 0.251953 3.56333 0.251953 3.56333 0.251953C3.56 0.251953 3.55667 0.251953 3.55333 0.251953C2.30167 0.251953 1.28333 1.27029 1.28333 2.52029V3.47029C1.075 3.53529 0.923333 3.72695 0.923333 3.95695V4.03529H0.568333C0.393333 4.03529 0.25 4.17862 0.25 4.35362V5.59529C0.25 6.47862 0.595 7.31029 1.22167 7.93695C1.68167 8.39529 2.25333 8.70029 2.88 8.83195V9.33529H2.055C1.745 9.33529 1.49333 9.58695 1.49333 9.89695V10.4336H0.943333C0.855 10.4336 0.785 10.5053 0.785 10.592C0.785 10.6786 0.856667 10.7503 0.943333 10.7503H1.81167H5.32H6.18833C6.27667 10.7503 6.34667 10.6786 6.34667 10.592C6.34667 10.5053 6.275 10.4336 6.18833 10.4336H5.63833V9.89695C5.63833 9.58695 5.38667 9.33529 5.07667 9.33529H4.25167V8.83029C5.78167 8.51029 6.88 7.17195 6.88 5.59529V4.35362C6.88167 4.17862 6.73833 4.03529 6.56167 4.03529ZM5.32 9.89529V10.432H1.81167V9.89529C1.81167 9.76195 1.92 9.65195 2.055 9.65195H5.07833C5.21 9.65362 5.32 9.76195 5.32 9.89529ZM1.6 2.51862C1.6 1.89195 1.89833 1.33529 2.36 0.976953V1.76862C2.36 1.85695 2.43167 1.92695 2.51833 1.92695C2.60667 1.92695 2.67667 1.85529 2.67667 1.76862V0.776953C2.89833 0.665286 3.145 0.595286 3.405 0.575286V2.03695C3.405 2.12529 3.47667 2.19529 3.56333 2.19529C3.65 2.19529 3.72167 2.12362 3.72167 2.03695V0.576953C3.97833 0.59862 4.225 0.670286 4.45 0.78862V1.77029C4.45 1.85862 4.52167 1.92862 4.60833 1.92862C4.69667 1.92862 4.76667 1.85695 4.76667 1.76862V0.99362C4.82333 1.03862 4.87833 1.08695 4.93 1.13862C5.29833 1.50695 5.50167 1.99695 5.50167 2.51862V3.44362H1.6V2.51862ZM1.435 3.76195H1.44167H5.665H5.67167C5.77833 3.76195 5.865 3.84862 5.865 3.95529V4.44862C5.865 4.55529 5.77833 4.64195 5.67167 4.64195H5.665H1.44167H1.435C1.32833 4.64195 1.24167 4.55529 1.24167 4.44862V4.19362V3.95695C1.24 3.84862 1.32667 3.76195 1.435 3.76195ZM1.6 4.96195H5.505V5.49862C5.505 6.57362 4.62833 7.45029 3.55167 7.45029C2.475 7.45029 1.6 6.57529 1.6 5.49862V4.96195ZM3.19667 9.33362V8.88362C3.43667 8.91029 3.69333 8.91029 3.93333 8.88362V9.33362H3.19667ZM6.56333 5.59362C6.56333 7.06029 5.51333 8.30195 4.06667 8.54362C3.74667 8.60029 3.38667 8.60029 3.06667 8.54362C3.06667 8.54362 3.06667 8.54362 3.065 8.54362C2.45167 8.44195 1.89167 8.15362 1.44667 7.71029C0.88 7.14362 0.568333 6.39195 0.568333 5.59362V4.35195H0.921667V4.44862C0.921667 4.67695 1.07333 4.87029 1.28167 4.93529V5.49862C1.28167 6.75029 2.3 7.76695 3.55167 7.76695C4.80333 7.76695 5.82167 6.74862 5.82167 5.49862V4.93529C6.03 4.87029 6.18167 4.67862 6.18167 4.44862V4.35195H6.56V5.59362H6.56333Z" fill="#303030"/>
<path d="M10.6891 0.421667C10.6491 0.391667 10.5974 0.381667 10.5507 0.395L9.66073 0.633333V0.568333C9.66073 0.393333 9.5174 0.25 9.3424 0.25H6.6074C6.4324 0.25 6.28906 0.393333 6.28906 0.568333V2.09167C6.28906 2.26667 6.4324 2.41 6.6074 2.41H9.34406C9.51906 2.41 9.6624 2.26667 9.6624 2.09167V2.02667L10.5524 2.26667C10.5657 2.27 10.5791 2.27167 10.5941 2.27167C10.6291 2.27167 10.6624 2.26 10.6907 2.23833C10.7307 2.20833 10.7524 2.16167 10.7524 2.11167V0.548333C10.7507 0.498333 10.7274 0.451667 10.6891 0.421667ZM9.3424 2.09167H6.60573V0.568333H9.3424V0.841667V1.82V2.09167ZM10.4324 1.905L9.66073 1.69667V0.963333L10.4324 0.755V1.905Z" fill="#303030"/>
<path d="M7.00404 0.777344C6.9157 0.777344 6.8457 0.85401 6.8457 0.942344C6.8457 0.992344 6.87237 1.03901 6.91237 1.06901C6.93904 1.08901 6.97404 1.09901 7.00737 1.09901C7.02404 1.09901 7.0407 1.09734 7.0557 1.09234C7.10404 1.07734 7.13904 1.04234 7.15404 0.99901C7.16237 0.97901 7.16737 0.957344 7.16737 0.935677C7.16904 0.847344 7.09237 0.777344 7.00404 0.777344Z" fill="#303030"/>
<path d="M7.49427 0.777344C7.40594 0.777344 7.33594 0.85401 7.33594 0.942344C7.33594 0.992344 7.3626 1.03901 7.4026 1.06901C7.42927 1.08901 7.46427 1.09901 7.4976 1.09901C7.51427 1.09901 7.52927 1.09734 7.54594 1.09234C7.59427 1.07734 7.62927 1.04401 7.64594 1.00068C7.65427 0.980677 7.65927 0.95901 7.65927 0.935677C7.65927 0.847344 7.5826 0.777344 7.49427 0.777344Z" fill="#303030"/>
</svg>
